<svg id="visual" viewBox="0 0 3000 1500" width="3000" height="1500" xmlns="http://www.w3.org/2000/svg" xmlns:xlink="http://www.w3.org/1999/xlink" version="1.1"><rect width="3000" height="1500" fill="#071118"></rect><g><g transform="translate(818 836)"><path d="M0 -84.6L73.2 -42.3L73.2 42.3L0 84.6L-73.2 42.3L-73.2 -42.3Z" fill="none" stroke="#4d263b" stroke-width="2"></path></g><g transform="translate(1043 896)"><path d="M0 -84L72.7 -42L72.7 42L0 84L-72.7 42L-72.7 -42Z" fill="none" stroke="#4d263b" stroke-width="2"></path></g><g transform="translate(2370 295)"><path d="M0 -84L72.7 -42L72.7 42L0 84L-72.7 42L-72.7 -42Z" fill="none" stroke="#4d263b" stroke-width="2"></path></g><g transform="translate(716 49)"><path d="M0 -84L72.7 -42L72.7 42L0 84L-72.7 42L-72.7 -42Z" stroke="#4d263b" fill="none" stroke-width="2"></path></g><g transform="translate(1031 302)"><path d="M0 -84L72.7 -42L72.7 42L0 84L-72.7 42L-72.7 -42Z" stroke="#4d263b" fill="none" stroke-width="2"></path></g><g transform="translate(2829 1057)"><path d="M0 -84L72.7 -42L72.7 42L0 84L-72.7 42L-72.7 -42Z" stroke="#4d263b" fill="none" stroke-width="2"></path></g><g transform="translate(1214 963)"><path d="M0 -84L72.7 -42L72.7 42L0 84L-72.7 42L-72.7 -42Z" stroke="#4d263b" fill="none" stroke-width="2"></path></g><g transform="translate(279 830)"><path d="M0 -84L72.7 -42L72.7 42L0 84L-72.7 42L-72.7 -42Z" stroke="#4d263b" fill="none" stroke-width="2"></path></g><g transform="translate(1360 175)"><path d="M0 -84L72.7 -42L72.7 42L0 84L-72.7 42L-72.7 -42Z" stroke="#4d263b" fill="none" stroke-width="2"></path></g><g transform="translate(102 715)"><path d="M0 -84L72.7 -42L72.7 42L0 84L-72.7 42L-72.7 -42Z" stroke="#4d263b" fill="none" stroke-width="2"></path></g><g transform="translate(425 957)"><path d="M0 -84L72.7 -42L72.7 42L0 84L-72.7 42L-72.7 -42Z" stroke="#4d263b" fill="none" stroke-width="2"></path></g><g transform="translate(926 696)"><path d="M0 -84L72.7 -42L72.7 42L0 84L-72.7 42L-72.7 -42Z" stroke="#4d263b" fill="none" stroke-width="2"></path></g><g transform="translate(1656 1393)"><path d="M0 -84L72.7 -42L72.7 42L0 84L-72.7 42L-72.7 -42Z" stroke="#4d263b" fill="none" stroke-width="2"></path></g><g transform="translate(170 181)"><path d="M0 -84L72.7 -42L72.7 42L0 84L-72.7 42L-72.7 -42Z" stroke="#4d263b" fill="none" stroke-width="2"></path></g><g transform="translate(2576 1213)"><path d="M0 -84L72.7 -42L72.7 42L0 84L-72.7 42L-72.7 -42Z" stroke="#4d263b" fill="none" stroke-width="2"></path></g><g transform="translate(199 394)"><path d="M0 -84L72.7 -42L72.7 42L0 84L-72.7 42L-72.7 -42Z" stroke="#4d263b" fill="none" stroke-width="2"></path></g><g transform="translate(743 1175)"><path d="M0 -84L72.7 -42L72.7 42L0 84L-72.7 42L-72.7 -42Z" stroke="#4d263b" fill="none" stroke-width="2"></path></g><g transform="translate(242 1001)"><path d="M0 -84L72.7 -42L72.7 42L0 84L-72.7 42L-72.7 -42Z" stroke="#4d263b" fill="none" stroke-width="2"></path></g><g transform="translate(1688 781)"><path d="M0 -84L72.7 -42L72.7 42L0 84L-72.7 42L-72.7 -42Z" stroke="#4d263b" fill="none" stroke-width="2"></path></g><g transform="translate(2090 887)"><path d="M0 -84L72.7 -42L72.7 42L0 84L-72.7 42L-72.7 -42Z" stroke="#4d263b" fill="none" stroke-width="2"></path></g><g transform="translate(1451 544)"><path d="M0 -84L72.7 -42L72.7 42L0 84L-72.7 42L-72.7 -42Z" stroke="#4d263b" fill="none" stroke-width="2"></path></g><g transform="translate(1846 1331)"><path d="M0 -84L72.7 -42L72.7 42L0 84L-72.7 42L-72.7 -42Z" stroke="#4d263b" fill="none" stroke-width="2"></path></g><g transform="translate(49 895)"><path d="M0 -84L72.7 -42L72.7 42L0 84L-72.7 42L-72.7 -42Z" stroke="#4d263b" fill="none" stroke-width="2"></path></g><g transform="translate(1074 1256)"><path d="M0 -84L72.7 -42L72.7 42L0 84L-72.7 42L-72.7 -42Z" stroke="#4d263b" fill="none" stroke-width="2"></path></g><g transform="translate(1988 1210)"><path d="M0 -84L72.7 -42L72.7 42L0 84L-72.7 42L-72.7 -42Z" stroke="#4d263b" fill="none" stroke-width="2"></path></g><g transform="translate(1559 938)"><path d="M0 -84L72.7 -42L72.7 42L0 84L-72.7 42L-72.7 -42Z" stroke="#4d263b" fill="none" stroke-width="2"></path></g><g transform="translate(2657 80)"><path d="M0 -84L72.7 -42L72.7 42L0 84L-72.7 42L-72.7 -42Z" stroke="#4d263b" fill="none" stroke-width="2"></path></g><g transform="translate(2964 764)"><path d="M0 -84L72.7 -42L72.7 42L0 84L-72.7 42L-72.7 -42Z" stroke="#4d263b" fill="none" stroke-width="2"></path></g><g transform="translate(1248 40)"><path d="M0 -84L72.7 -42L72.7 42L0 84L-72.7 42L-72.7 -42Z" stroke="#4d263b" fill="none" stroke-width="2"></path></g><g transform="translate(1774 212)"><path d="M0 -84L72.7 -42L72.7 42L0 84L-72.7 42L-72.7 -42Z" stroke="#4d263b" fill="none" stroke-width="2"></path></g><g transform="translate(2565 283)"><path d="M0 -84L72.7 -42L72.7 42L0 84L-72.7 42L-72.7 -42Z" stroke="#4d263b" fill="none" stroke-width="2"></path></g><g transform="translate(1120 1469)"><path d="M0 -84L72.7 -42L72.7 42L0 84L-72.7 42L-72.7 -42Z" stroke="#4d263b" fill="none" stroke-width="2"></path></g><g transform="translate(559 1356)"><path d="M0 -84L72.7 -42L72.7 42L0 84L-72.7 42L-72.7 -42Z" stroke="#4d263b" fill="none" stroke-width="2"></path></g><g transform="translate(590 191)"><path d="M0 -84L72.7 -42L72.7 42L0 84L-72.7 42L-72.7 -42Z" stroke="#4d263b" fill="none" stroke-width="2"></path></g><g transform="translate(2168 255)"><path d="M0 -84L72.7 -42L72.7 42L0 84L-72.7 42L-72.7 -42Z" stroke="#4d263b" fill="none" stroke-width="2"></path></g><g transform="translate(2468 95)"><path d="M0 -84L72.7 -42L72.7 42L0 84L-72.7 42L-72.7 -42Z" stroke="#4d263b" fill="none" stroke-width="2"></path></g><g transform="translate(1985 659)"><path d="M0 -84L72.7 -42L72.7 42L0 84L-72.7 42L-72.7 -42Z" stroke="#4d263b" fill="none" stroke-width="2"></path></g><g transform="translate(1576 1237)"><path d="M0 -84L72.7 -42L72.7 42L0 84L-72.7 42L-72.7 -42Z" stroke="#4d263b" fill="none" stroke-width="2"></path></g><g transform="translate(1737 1173)"><path d="M0 -84L72.7 -42L72.7 42L0 84L-72.7 42L-72.7 -42Z" stroke="#4d263b" fill="none" stroke-width="2"></path></g><g transform="translate(697 1005)"><path d="M0 -84L72.7 -42L72.7 42L0 84L-72.7 42L-72.7 -42Z" stroke="#4d263b" fill="none" stroke-width="2"></path></g><g transform="translate(162 1193)"><path d="M0 -84L72.7 -42L72.7 42L0 84L-72.7 42L-72.7 -42Z" stroke="#4d263b" fill="none" stroke-width="2"></path></g><g transform="translate(2204 1155)"><path d="M0 -84L72.7 -42L72.7 42L0 84L-72.7 42L-72.7 -42Z" stroke="#4d263b" fill="none" stroke-width="2"></path></g><g transform="translate(1250 1357)"><path d="M0 -84L72.7 -42L72.7 42L0 84L-72.7 42L-72.7 -42Z" stroke="#4d263b" fill="none" stroke-width="2"></path></g><g transform="translate(2460 1089)"><path d="M0 -84L72.7 -42L72.7 42L0 84L-72.7 42L-72.7 -42Z" stroke="#4d263b" fill="none" stroke-width="2"></path></g><g transform="translate(616 700)"><path d="M0 -84L72.7 -42L72.7 42L0 84L-72.7 42L-72.7 -42Z" stroke="#4d263b" fill="none" stroke-width="2"></path></g><g transform="translate(2847 228)"><path d="M0 -84L72.7 -42L72.7 42L0 84L-72.7 42L-72.7 -42Z" stroke="#4d263b" fill="none" stroke-width="2"></path></g><g transform="translate(37 1314)"><path d="M0 -84L72.7 -42L72.7 42L0 84L-72.7 42L-72.7 -42Z" stroke="#4d263b" fill="none" stroke-width="2"></path></g><g transform="translate(2608 919)"><path d="M0 -84L72.7 -42L72.7 42L0 84L-72.7 42L-72.7 -42Z" stroke="#4d263b" fill="none" stroke-width="2"></path></g><g transform="translate(2451 1366)"><path d="M0 -84L72.7 -42L72.7 42L0 84L-72.7 42L-72.7 -42Z" stroke="#4d263b" fill="none" stroke-width="2"></path></g><g transform="translate(103 540)"><path d="M0 -84L72.7 -42L72.7 42L0 84L-72.7 42L-72.7 -42Z" stroke="#4d263b" fill="none" stroke-width="2"></path></g><g transform="translate(356 544)"><path d="M0 -84L72.7 -42L72.7 42L0 84L-72.7 42L-72.7 -42Z" stroke="#4d263b" fill="none" stroke-width="2"></path></g><g transform="translate(1592 12)"><path d="M0 -84L72.7 -42L72.7 42L0 84L-72.7 42L-72.7 -42Z" stroke="#4d263b" fill="none" stroke-width="2"></path></g><g transform="translate(761 1427)"><path d="M0 -84L72.7 -42L72.7 42L0 84L-72.7 42L-72.7 -42Z" stroke="#4d263b" fill="none" stroke-width="2"></path></g><g transform="translate(2744 632)"><path d="M0 -84L72.7 -42L72.7 42L0 84L-72.7 42L-72.7 -42Z" stroke="#4d263b" fill="none" stroke-width="2"></path></g><g transform="translate(1402 786)"><path d="M0 -84L72.7 -42L72.7 42L0 84L-72.7 42L-72.7 -42Z" stroke="#4d263b" fill="none" stroke-width="2"></path></g><g transform="translate(314 68)"><path d="M0 -84L72.7 -42L72.7 42L0 84L-72.7 42L-72.7 -42Z" stroke="#4d263b" fill="none" stroke-width="2"></path></g><g transform="translate(1219 436)"><path d="M0 -84L72.7 -42L72.7 42L0 84L-72.7 42L-72.7 -42Z" stroke="#4d263b" fill="none" stroke-width="2"></path></g><g transform="translate(2446 604)"><path d="M0 -84L72.7 -42L72.7 42L0 84L-72.7 42L-72.7 -42Z" stroke="#4d263b" fill="none" stroke-width="2"></path></g><g transform="translate(2925 4)"><path d="M0 -84L72.7 -42L72.7 42L0 84L-72.7 42L-72.7 -42Z" stroke="#4d263b" fill="none" stroke-width="2"></path></g><g transform="translate(2687 469)"><path d="M0 -84L72.7 -42L72.7 42L0 84L-72.7 42L-72.7 -42Z" stroke="#4d263b" fill="none" stroke-width="2"></path></g><g transform="translate(516 462)"><path d="M0 -84L72.7 -42L72.7 42L0 84L-72.7 42L-72.7 -42Z" stroke="#4d263b" fill="none" stroke-width="2"></path></g><g transform="translate(1276 1179)"><path d="M0 -84L72.7 -42L72.7 42L0 84L-72.7 42L-72.7 -42Z" stroke="#4d263b" fill="none" stroke-width="2"></path></g><g transform="translate(1531 188)"><path d="M0 -84L72.7 -42L72.7 42L0 84L-72.7 42L-72.7 -42Z" stroke="#4d263b" fill="none" stroke-width="2"></path></g><g transform="translate(2325 845)"><path d="M0 -84L72.7 -42L72.7 42L0 84L-72.7 42L-72.7 -42Z" stroke="#4d263b" fill="none" stroke-width="2"></path></g><g transform="translate(992 1099)"><path d="M0 -84L72.7 -42L72.7 42L0 84L-72.7 42L-72.7 -42Z" stroke="#4d263b" fill="none" stroke-width="2"></path></g><g transform="translate(1799 586)"><path d="M0 -84L72.7 -42L72.7 42L0 84L-72.7 42L-72.7 -42Z" stroke="#4d263b" fill="none" stroke-width="2"></path></g><g transform="translate(793 349)"><path d="M0 -84L72.7 -42L72.7 42L0 84L-72.7 42L-72.7 -42Z" stroke="#4d263b" fill="none" stroke-width="2"></path></g><g transform="translate(1432 1402)"><path d="M0 -84L72.7 -42L72.7 42L0 84L-72.7 42L-72.7 -42Z" stroke="#4d263b" fill="none" stroke-width="2"></path></g><g transform="translate(1981 1025)"><path d="M0 -84L72.7 -42L72.7 42L0 84L-72.7 42L-72.7 -42Z" stroke="#4d263b" fill="none" stroke-width="2"></path></g><g transform="translate(14 90)"><path d="M0 -84L72.7 -42L72.7 42L0 84L-72.7 42L-72.7 -42Z" stroke="#4d263b" fill="none" stroke-width="2"></path></g><g transform="translate(513 5)"><path d="M0 -84L72.7 -42L72.7 42L0 84L-72.7 42L-72.7 -42Z" stroke="#4d263b" fill="none" stroke-width="2"></path></g><g transform="translate(2089 56)"><path d="M0 -84L72.7 -42L72.7 42L0 84L-72.7 42L-72.7 -42Z" stroke="#4d263b" fill="none" stroke-width="2"></path></g><g transform="translate(555 1136)"><path d="M0 -84L72.7 -42L72.7 42L0 84L-72.7 42L-72.7 -42Z" stroke="#4d263b" fill="none" stroke-width="2"></path></g><g transform="translate(2897 1272)"><path d="M0 -84L72.7 -42L72.7 42L0 84L-72.7 42L-72.7 -42Z" stroke="#4d263b" fill="none" stroke-width="2"></path></g><g transform="translate(1292 612)"><path d="M0 -84L72.7 -42L72.7 42L0 84L-72.7 42L-72.7 -42Z" stroke="#4d263b" fill="none" stroke-width="2"></path></g><g transform="translate(1975 251)"><path d="M0 -84L72.7 -42L72.7 42L0 84L-72.7 42L-72.7 -42Z" stroke="#4d263b" fill="none" stroke-width="2"></path></g><g transform="translate(2952 589)"><path d="M0 -84L72.7 -42L72.7 42L0 84L-72.7 42L-72.7 -42Z" stroke="#4d263b" fill="none" stroke-width="2"></path></g><g transform="translate(2199 529)"><path d="M0 -84L72.7 -42L72.7 42L0 84L-72.7 42L-72.7 -42Z" stroke="#4d263b" fill="none" stroke-width="2"></path></g><g transform="translate(1610 618)"><path d="M0 -84L72.7 -42L72.7 42L0 84L-72.7 42L-72.7 -42Z" stroke="#4d263b" fill="none" stroke-width="2"></path></g><g transform="translate(348 1307)"><path d="M0 -84L72.7 -42L72.7 42L0 84L-72.7 42L-72.7 -42Z" stroke="#4d263b" fill="none" stroke-width="2"></path></g><g transform="translate(2942 1437)"><path d="M0 -84L72.7 -42L72.7 42L0 84L-72.7 42L-72.7 -42Z" stroke="#4d263b" fill="none" stroke-width="2"></path></g><g transform="translate(1450 343)"><path d="M0 -84L72.7 -42L72.7 42L0 84L-72.7 42L-72.7 -42Z" stroke="#4d263b" fill="none" stroke-width="2"></path></g><g transform="translate(1033 94)"><path d="M0 -84L72.7 -42L72.7 42L0 84L-72.7 42L-72.7 -42Z" stroke="#4d263b" fill="none" stroke-width="2"></path></g><g transform="translate(907 527)"><path d="M0 -84L72.7 -42L72.7 42L0 84L-72.7 42L-72.7 -42Z" stroke="#4d263b" fill="none" stroke-width="2"></path></g><g transform="translate(2234 1472)"><path d="M0 -84L72.7 -42L72.7 42L0 84L-72.7 42L-72.7 -42Z" stroke="#4d263b" fill="none" stroke-width="2"></path></g><g transform="translate(155 1482)"><path d="M0 -84L72.7 -42L72.7 42L0 84L-72.7 42L-72.7 -42Z" stroke="#4d263b" fill="none" stroke-width="2"></path></g><g transform="translate(1829 386)"><path d="M0 -84L72.7 -42L72.7 42L0 84L-72.7 42L-72.7 -42Z" stroke="#4d263b" fill="none" stroke-width="2"></path></g><g transform="translate(1855 860)"><path d="M0 -84L72.7 -42L72.7 42L0 84L-72.7 42L-72.7 -42Z" stroke="#4d263b" fill="none" stroke-width="2"></path></g><g transform="translate(371 292)"><path d="M0 -84L72.7 -42L72.7 42L0 84L-72.7 42L-72.7 -42Z" stroke="#4d263b" fill="none" stroke-width="2"></path></g><g transform="translate(742 570)"><path d="M0 -84L72.7 -42L72.7 42L0 84L-72.7 42L-72.7 -42Z" stroke="#4d263b" fill="none" stroke-width="2"></path></g><g transform="translate(2689 1481)"><path d="M0 -84L72.7 -42L72.7 42L0 84L-72.7 42L-72.7 -42Z" stroke="#4d263b" fill="none" stroke-width="2"></path></g><g transform="translate(1606 425)"><path d="M0 -84L72.7 -42L72.7 42L0 84L-72.7 42L-72.7 -42Z" stroke="#4d263b" fill="none" stroke-width="2"></path></g><g transform="translate(2952 397)"><path d="M0 -84L72.7 -42L72.7 42L0 84L-72.7 42L-72.7 -42Z" stroke="#4d263b" fill="none" stroke-width="2"></path></g><g transform="translate(1447 1126)"><path d="M0 -84L72.7 -42L72.7 42L0 84L-72.7 42L-72.7 -42Z" stroke="#4d263b" fill="none" stroke-width="2"></path></g><g transform="translate(1968 1475)"><path d="M0 -84L72.7 -42L72.7 42L0 84L-72.7 42L-72.7 -42Z" stroke="#4d263b" fill="none" stroke-width="2"></path></g><g transform="translate(1909 87)"><path d="M0 -84L72.7 -42L72.7 42L0 84L-72.7 42L-72.7 -42Z" stroke="#4d263b" fill="none" stroke-width="2"></path></g><g transform="translate(2266 80)"><path d="M0 -84L72.7 -42L72.7 42L0 84L-72.7 42L-72.7 -42Z" stroke="#4d263b" fill="none" stroke-width="2"></path></g><g transform="translate(9 356)"><path d="M0 -84L72.7 -42L72.7 42L0 84L-72.7 42L-72.7 -42Z" stroke="#4d263b" fill="none" stroke-width="2"></path></g><g transform="translate(370 1118)"><path d="M0 -84L72.7 -42L72.7 42L0 84L-72.7 42L-72.7 -42Z" stroke="#4d263b" fill="none" stroke-width="2"></path></g><g transform="translate(898 1287)"><path d="M0 -84L72.7 -42L72.7 42L0 84L-72.7 42L-72.7 -42Z" stroke="#4d263b" fill="none" stroke-width="2"></path></g><g transform="translate(1189 199)"><path d="M0 -84L72.7 -42L72.7 42L0 84L-72.7 42L-72.7 -42Z" stroke="#4d263b" fill="none" stroke-width="2"></path></g><g transform="translate(1224 780)"><path d="M0 -84L72.7 -42L72.7 42L0 84L-72.7 42L-72.7 -42Z" stroke="#4d263b" fill="none" stroke-width="2"></path></g><g transform="translate(2077 406)"><path d="M0 -84L72.7 -42L72.7 42L0 84L-72.7 42L-72.7 -42Z" stroke="#4d263b" fill="none" stroke-width="2"></path></g><g transform="translate(1078 591)"><path d="M0 -84L72.7 -42L72.7 42L0 84L-72.7 42L-72.7 -42Z" stroke="#4d263b" fill="none" stroke-width="2"></path></g><g transform="translate(440 777)"><path d="M0 -84L72.7 -42L72.7 42L0 84L-72.7 42L-72.7 -42Z" stroke="#4d263b" fill="none" stroke-width="2"></path></g><g transform="translate(14 1096)"><path d="M0 -84L72.7 -42L72.7 42L0 84L-72.7 42L-72.7 -42Z" stroke="#4d263b" fill="none" stroke-width="2"></path></g><g transform="translate(2186 717)"><path d="M0 -84L72.7 -42L72.7 42L0 84L-72.7 42L-72.7 -42Z" stroke="#4d263b" fill="none" stroke-width="2"></path></g><g transform="translate(442 1486)"><path d="M0 -84L72.7 -42L72.7 42L0 84L-72.7 42L-72.7 -42Z" stroke="#4d263b" fill="none" stroke-width="2"></path></g><g transform="translate(2543 763)"><path d="M0 -84L72.7 -42L72.7 42L0 84L-72.7 42L-72.7 -42Z" stroke="#4d263b" fill="none" stroke-width="2"></path></g><g transform="translate(2986 968)"><path d="M0 -84L72.7 -42L72.7 42L0 84L-72.7 42L-72.7 -42Z" stroke="#4d263b" fill="none" stroke-width="2"></path></g><g transform="translate(2140 1323)"><path d="M0 -84L72.7 -42L72.7 42L0 84L-72.7 42L-72.7 -42Z" stroke="#4d263b" fill="none" stroke-width="2"></path></g><g transform="translate(878 195)"><path d="M0 -84L72.7 -42L72.7 42L0 84L-72.7 42L-72.7 -42Z" stroke="#4d263b" fill="none" stroke-width="2"></path></g><g transform="translate(2762 842)"><path d="M0 -84L72.7 -42L72.7 42L0 84L-72.7 42L-72.7 -42Z" stroke="#4d263b" fill="none" stroke-width="2"></path></g><g transform="translate(949 1475)"><path d="M0 -84L72.7 -42L72.7 42L0 84L-72.7 42L-72.7 -42Z" stroke="#4d263b" fill="none" stroke-width="2"></path></g><g transform="translate(1384 963)"><path d="M0 -84L72.7 -42L72.7 42L0 84L-72.7 42L-72.7 -42Z" stroke="#4d263b" fill="none" stroke-width="2"></path></g><g transform="translate(1731 996)"><path d="M0 -84L72.7 -42L72.7 42L0 84L-72.7 42L-72.7 -42Z" stroke="#4d263b" fill="none" stroke-width="2"></path></g><g transform="translate(2726 1307)"><path d="M0 -84L72.7 -42L72.7 42L0 84L-72.7 42L-72.7 -42Z" stroke="#4d263b" fill="none" stroke-width="2"></path></g><g transform="translate(2511 445)"><path d="M0 -84L72.7 -42L72.7 42L0 84L-72.7 42L-72.7 -42Z" stroke="#4d263b" fill="none" stroke-width="2"></path></g><g transform="translate(2308 1014)"><path d="M0 -84L72.7 -42L72.7 42L0 84L-72.7 42L-72.7 -42Z" stroke="#4d263b" fill="none" stroke-width="2"></path></g></g></svg>