<svg id="visual" viewBox="0 0 900 600" width="500" height="310" xmlns="http://www.w3.org/2000/svg" xmlns:xlink="http://www.w3.org/1999/xlink" version="1.1"><rect x="0" y="0" width="900" height="600" fill="#001220"></rect>
<path d="M185 0L173.2 16.7C161.3 33.3 137.7 66.7 125.3 100C113 133.3 112 166.7 123.2 200C134.3 233.3 157.7 266.7 168.8 300C180 333.3 179 366.7 167.7 400C156.3 433.3 134.7 466.7 130.2 500C125.7 533.3 138.3 566.7 144.7 583.3L151 600L0 600L0 583.3C0 566.7 0 533.3 0 500C0 466.7 0 433.3 0 400C0 366.7 0 333.3 0 300C0 266.7 0 233.3 0 200C0 166.7 0 133.3 0 100C0 66.7 0 33.3 0 16.7L0 0Z" fill="#fa7268"></path><path d="M125 0L128.8 16.7C132.7 33.3 140.3 66.7 141.2 100C142 133.3 136 166.7 131.2 200C126.3 233.3 122.7 266.7 113.8 300C105 333.3 91 366.7 89.5 400C88 433.3 99 466.7 109.3 500C119.7 533.3 129.3 566.7 134.2 583.3L139 600L0 600L0 583.3C0 566.7 0 533.3 0 500C0 466.7 0 433.3 0 400C0 366.7 0 333.3 0 300C0 266.7 0 233.3 0 200C0 166.7 0 133.3 0 100C0 66.7 0 33.3 0 16.7L0 0Z" fill="#e34c67"></path><path d="M58 0L63.5 16.7C69 33.3 80 66.7 83 100C86 133.3 81 166.7 75.8 200C70.7 233.3 65.3 266.7 60.8 300C56.3 333.3 52.7 366.7 54.7 400C56.7 433.3 64.3 466.7 68.7 500C73 533.3 74 566.7 74.5 583.3L75 600L0 600L0 583.3C0 566.7 0 533.3 0 500C0 466.7 0 433.3 0 400C0 366.7 0 333.3 0 300C0 266.7 0 233.3 0 200C0 166.7 0 133.3 0 100C0 66.7 0 33.3 0 16.7L0 0Z" fill="#c62368"></path>
  
 <g transform="scale(1, -1) translate(0, -600)">
<path d="M717 600L728.8 583.3C740.7 566.7 764.3 533.3 776.7 500C789 466.7 790 433.3 778.8 400C767.7 366.7 744.3 333.3 733.2 300C722 266.7 723 233.3 734.3 200C745.7 166.7 767.3 133.3 771.8 100C776.3 66.7 763.7 33.3 757.3 16.7L751 0L900 0L900 16.7C900 33.3 900 66.7 900 100C900 133.3 900 166.7 900 200C900 233.3 900 266.7 900 300C900 333.3 900 366.7 900 400C900 433.3 900 466.7 900 500C900 533.3 900 566.7 900 583.3L900 600Z" fill="#fa7268"></path><path d="M777 600L773.2 583.3C769.3 566.7 761.7 533.3 760.8 500C760 466.7 766 433.3 770.8 400C775.7 366.7 779.3 333.3 788.2 300C797 266.7 811 233.3 812.5 200C814 166.7 803 133.3 792.7 100C782.3 66.7 772.7 33.3 767.8 16.7L763 0L900 0L900 16.7C900 33.3 900 66.7 900 100C900 133.3 900 166.7 900 200C900 233.3 900 266.7 900 300C900 333.3 900 366.7 900 400C900 433.3 900 466.7 900 500C900 533.3 900 566.7 900 583.3L900 600Z" fill="#e34c67"></path><path d="M844 600L838.5 583.3C833 566.7 822 533.3 819 500C816 466.7 821 433.3 826.2 400C831.3 366.7 836.7 333.3 841.2 300C845.7 266.7 849.3 233.3 847.3 200C845.3 166.7 837.7 133.3 833.3 100C829 66.7 828 33.3 827.5 16.7L827 0L900 0L900 16.7C900 33.3 900 66.7 900 100C900 133.3 900 166.7 900 200C900 233.3 900 266.7 900 300C900 333.3 900 366.7 900 400C900 433.3 900 466.7 900 500C900 533.3 900 566.7 900 583.3L900 600Z" fill="#c62368"></path>
</g>
</svg>